<?xml version="1.0" encoding="utf-8"?>
<svg viewBox="370.937 216.489 187.484 42.895" xmlns="http://www.w3.org/2000/svg">
  <path d="M -241.827 19.407 C -241.827 18.678 -241.961 18.023 -242.232 17.444 C -242.478 16.845 -242.949 16.303 -243.645 15.816 C -244.34 15.312 -245.315 14.816 -246.571 14.33 C -247.828 13.843 -249.454 13.338 -251.451 12.815 C -253.671 12.216 -255.78 11.543 -257.777 10.795 C -259.749 10.047 -261.499 9.177 -263.024 8.186 C -264.528 7.176 -265.717 6.007 -266.592 4.679 C -267.444 3.351 -267.869 1.808 -267.869 0.05 C -267.869 -1.652 -267.421 -3.195 -266.525 -4.579 C -265.626 -5.982 -264.371 -7.179 -262.756 -8.17 C -261.14 -9.18 -259.234 -9.956 -257.035 -10.499 C -254.815 -11.041 -252.381 -11.312 -249.734 -11.312 C -246.124 -11.312 -242.971 -10.77 -240.281 -9.685 C -237.588 -8.6 -235.502 -7.113 -234.022 -5.224 C -232.519 -3.335 -231.768 -1.175 -231.768 1.256 L -241.794 1.256 C -241.794 0.059 -242.096 -0.988 -242.703 -1.886 C -243.285 -2.802 -244.183 -3.522 -245.393 -4.046 C -246.583 -4.57 -248.086 -4.832 -249.903 -4.832 C -251.652 -4.832 -253.109 -4.607 -254.276 -4.158 C -255.443 -3.728 -256.318 -3.139 -256.901 -2.391 C -257.484 -1.661 -257.777 -0.838 -257.777 0.078 C -257.777 0.77 -257.574 1.397 -257.17 1.958 C -256.744 2.519 -256.116 3.042 -255.286 3.529 C -254.455 4.015 -253.436 4.473 -252.224 4.903 C -251.013 5.334 -249.611 5.754 -248.019 6.166 C -245.35 6.839 -243.006 7.597 -240.987 8.438 C -238.945 9.28 -237.24 10.224 -235.873 11.272 C -234.504 12.319 -233.473 13.507 -232.777 14.835 C -232.081 16.162 -231.734 17.668 -231.734 19.351 C -231.734 21.128 -232.149 22.718 -232.979 24.121 C -233.809 25.523 -235.009 26.711 -236.579 27.683 C -238.15 28.656 -240.023 29.395 -242.197 29.9 C -244.373 30.405 -246.807 30.657 -249.498 30.657 C -251.922 30.657 -254.311 30.395 -256.665 29.872 C -259.021 29.329 -261.162 28.516 -263.093 27.431 C -264.999 26.346 -266.525 24.962 -267.669 23.279 C -268.812 21.596 -269.384 19.604 -269.384 17.303 L -259.257 17.303 C -259.257 18.575 -259.021 19.651 -258.55 20.53 C -258.079 21.409 -257.417 22.119 -256.564 22.662 C -255.69 23.204 -254.658 23.597 -253.469 23.84 C -252.258 24.083 -250.935 24.205 -249.498 24.205 C -247.749 24.205 -246.313 23.999 -245.193 23.588 C -244.048 23.176 -243.207 22.606 -242.669 21.876 C -242.108 21.147 -241.827 20.324 -241.827 19.407 Z M -203.941 22.83 L -203.941 -0.259 L -194.253 -0.259 L -194.253 30.096 L -203.369 30.096 L -203.941 22.83 Z M -202.866 16.602 L -200.006 16.546 C -200.006 18.566 -200.286 20.445 -200.846 22.185 C -201.408 23.905 -202.248 25.402 -203.369 26.674 C -204.491 27.927 -205.905 28.909 -207.608 29.619 C -209.314 30.311 -211.321 30.657 -213.632 30.657 C -215.404 30.657 -217.041 30.452 -218.544 30.04 C -220.025 29.61 -221.304 28.946 -222.381 28.048 C -223.435 27.132 -224.264 25.963 -224.87 24.541 C -225.452 23.101 -225.745 21.371 -225.745 19.351 L -225.745 -0.259 L -216.054 -0.259 L -216.054 19.407 C -216.054 20.305 -215.931 21.063 -215.684 21.68 C -215.416 22.297 -215.046 22.802 -214.576 23.195 C -214.103 23.588 -213.554 23.868 -212.926 24.036 C -212.275 24.205 -211.556 24.289 -210.771 24.289 C -208.775 24.289 -207.206 23.952 -206.062 23.279 C -204.895 22.606 -204.077 21.689 -203.604 20.53 C -203.111 19.351 -202.866 18.042 -202.866 16.602 Z M -186.311 -0.259 L -176.588 -0.259 L -176.588 31.92 C -176.588 34.164 -177.082 36.062 -178.069 37.615 C -179.055 39.167 -180.48 40.345 -182.341 41.15 C -184.203 41.954 -186.458 42.356 -189.104 42.356 C -189.933 42.356 -190.741 42.319 -191.528 42.244 C -192.334 42.169 -193.165 42.047 -194.016 41.879 L -193.983 35.679 C -193.444 35.754 -192.918 35.81 -192.401 35.847 C -191.908 35.903 -191.403 35.931 -190.887 35.931 C -189.878 35.931 -189.038 35.791 -188.364 35.511 C -187.691 35.23 -187.186 34.791 -186.85 34.192 C -186.491 33.612 -186.311 32.855 -186.311 31.92 L -186.311 -0.259 Z M -187.086 -8.17 C -187.086 -9.348 -186.592 -10.321 -185.605 -11.088 C -184.595 -11.854 -183.272 -12.238 -181.634 -12.238 C -179.975 -12.238 -178.652 -11.854 -177.664 -11.088 C -176.678 -10.321 -176.184 -9.348 -176.184 -8.17 C -176.184 -6.992 -176.678 -6.019 -177.664 -5.252 C -178.652 -4.486 -179.975 -4.102 -181.634 -4.102 C -183.272 -4.102 -184.595 -4.486 -185.605 -5.252 C -186.592 -6.019 -187.086 -6.992 -187.086 -8.17 Z M -152.127 30.657 C -154.953 30.657 -157.488 30.283 -159.731 29.535 C -161.974 28.768 -163.881 27.712 -165.45 26.365 C -167 25.018 -168.188 23.457 -169.017 21.68 C -169.847 19.884 -170.262 17.977 -170.262 15.957 L -170.262 14.835 C -170.262 12.534 -169.87 10.43 -169.084 8.522 C -168.3 6.615 -167.178 4.959 -165.721 3.557 C -164.24 2.154 -162.446 1.079 -160.336 0.33 C -158.228 -0.436 -155.851 -0.82 -153.203 -0.82 C -150.624 -0.82 -148.336 -0.464 -146.34 0.246 C -144.344 0.957 -142.673 1.967 -141.326 3.276 C -139.958 4.585 -138.927 6.156 -138.231 7.989 C -137.536 9.803 -137.188 11.823 -137.188 14.049 L -137.188 17.416 L -166.124 17.416 L -166.124 12.029 L -146.709 12.029 L -146.709 11.412 C -146.709 10.29 -146.955 9.289 -147.45 8.41 C -147.92 7.512 -148.639 6.802 -149.603 6.278 C -150.567 5.754 -151.801 5.492 -153.305 5.492 C -154.583 5.492 -155.682 5.726 -156.602 6.194 C -157.521 6.661 -158.272 7.316 -158.857 8.158 C -159.417 8.999 -159.843 9.991 -160.135 11.131 C -160.404 12.254 -160.538 13.488 -160.538 14.835 L -160.538 15.957 C -160.538 17.172 -160.336 18.295 -159.933 19.323 C -159.507 20.352 -158.913 21.24 -158.149 21.988 C -157.365 22.737 -156.423 23.316 -155.324 23.728 C -154.202 24.139 -152.935 24.345 -151.521 24.345 C -149.772 24.345 -148.145 24.064 -146.642 23.503 C -145.118 22.924 -143.806 22.054 -142.706 20.894 L -137.995 25.159 C -138.758 26.075 -139.802 26.954 -141.125 27.796 C -142.425 28.637 -143.995 29.329 -145.835 29.872 C -147.675 30.395 -149.772 30.657 -152.127 30.657 Z M -121.443 -0.259 L -121.443 30.096 L -131.165 30.096 L -131.165 -0.259 L -121.443 -0.259 Z M -131.771 -8.17 C -131.771 -9.348 -131.277 -10.321 -130.291 -11.088 C -129.303 -11.854 -127.981 -12.238 -126.319 -12.238 C -124.682 -12.238 -123.371 -11.854 -122.384 -11.088 C -121.375 -10.321 -120.87 -9.348 -120.87 -8.17 C -120.87 -6.992 -121.375 -6.019 -122.384 -5.252 C -123.371 -4.486 -124.682 -4.102 -126.319 -4.102 C -127.981 -4.102 -129.303 -4.486 -130.291 -5.252 C -131.277 -6.019 -131.771 -6.992 -131.771 -8.17 Z M -95.602 -0.259 L -95.602 5.464 L -116.798 5.464 L -116.798 -0.259 L -95.602 -0.259 Z M -111.55 -7.749 L -101.859 -7.749 L -101.859 20.95 C -101.859 21.829 -101.725 22.503 -101.456 22.97 C -101.163 23.438 -100.739 23.765 -100.177 23.952 C -99.616 24.121 -98.91 24.205 -98.058 24.205 C -97.453 24.205 -96.914 24.186 -96.443 24.149 C -95.949 24.093 -95.534 24.036 -95.199 23.98 L -95.163 29.928 C -95.993 30.152 -96.891 30.33 -97.856 30.461 C -98.82 30.592 -99.885 30.657 -101.052 30.657 C -103.183 30.657 -105.045 30.367 -106.637 29.788 C -108.208 29.189 -109.419 28.235 -110.272 26.926 C -111.123 25.617 -111.55 23.896 -111.55 21.764 L -111.55 -7.749 Z M -92.506 15.227 L -92.506 14.638 C -92.506 12.413 -92.126 10.365 -91.362 8.494 C -90.6 6.605 -89.489 4.969 -88.032 3.585 C -86.573 2.201 -84.778 1.125 -82.647 0.359 C -80.517 -0.427 -78.072 -0.82 -75.313 -0.82 C -72.555 -0.82 -70.097 -0.427 -67.944 0.359 C -65.792 1.125 -63.986 2.201 -62.526 3.585 C -61.048 4.969 -59.926 6.605 -59.163 8.494 C -58.4 10.365 -58.019 12.413 -58.019 14.638 L -58.019 15.227 C -58.019 17.434 -58.4 19.482 -59.163 21.371 C -59.926 23.242 -61.048 24.878 -62.526 26.281 C -63.986 27.665 -65.78 28.74 -67.911 29.507 C -70.042 30.274 -72.486 30.657 -75.245 30.657 C -78.005 30.657 -80.46 30.274 -82.615 29.507 C -84.746 28.74 -86.55 27.665 -88.032 26.281 C -89.489 24.878 -90.6 23.242 -91.362 21.371 C -92.126 19.482 -92.506 17.434 -92.506 15.227 Z M -82.815 14.638 L -82.815 15.227 C -82.815 16.499 -82.681 17.687 -82.412 18.79 C -82.143 19.894 -81.716 20.866 -81.133 21.708 C -80.528 22.531 -79.743 23.176 -78.778 23.644 C -77.812 24.111 -76.636 24.345 -75.245 24.345 C -73.901 24.345 -72.745 24.111 -71.78 23.644 C -70.815 23.176 -70.042 22.531 -69.459 21.708 C -68.876 20.866 -68.449 19.894 -68.181 18.79 C -67.888 17.687 -67.743 16.499 -67.743 15.227 L -67.743 14.638 C -67.743 13.404 -67.888 12.244 -68.181 11.159 C -68.449 10.056 -68.887 9.083 -69.492 8.242 C -70.075 7.381 -70.849 6.708 -71.814 6.222 C -72.779 5.736 -73.945 5.492 -75.313 5.492 C -76.681 5.492 -77.847 5.736 -78.812 6.222 C -79.753 6.708 -80.528 7.381 -81.133 8.242 C -81.716 9.083 -82.143 10.056 -82.412 11.159 C -82.681 12.244 -82.815 13.404 -82.815 14.638 Z" fill="white" style="" transform="matrix(1, 0, 0, 1, 487.253815, 228.726852)">
    <title>Sujeito</title>
  </path>
  <path d="M -50.914 15.536 L -61.502 15.536 L -61.502 8.971 L -50.914 8.971 C -49.279 8.971 -47.946 8.709 -46.92 8.186 C -45.892 7.643 -45.141 6.895 -44.665 5.941 C -44.189 4.987 -43.952 3.912 -43.952 2.715 C -43.952 1.499 -44.189 0.368 -44.665 -0.68 C -45.141 -1.727 -45.892 -2.569 -46.92 -3.205 C -47.946 -3.84 -49.279 -4.158 -50.914 -4.158 L -58.534 -4.158 L -58.534 30.096 L -67.096 30.096 L -67.096 -10.751 L -50.914 -10.751 C -47.662 -10.751 -44.875 -10.171 -42.553 -9.012 C -40.213 -7.871 -38.424 -6.29 -37.189 -4.271 C -35.951 -2.251 -35.333 0.059 -35.333 2.659 C -35.333 5.296 -35.951 7.578 -37.189 9.504 C -38.424 11.431 -40.213 12.917 -42.553 13.965 C -44.875 15.012 -47.662 15.536 -50.914 15.536 Z M -21.265 -0.259 L -21.265 30.096 L -29.512 30.096 L -29.512 -0.259 L -21.265 -0.259 Z M -30.025 -8.17 C -30.025 -9.348 -29.608 -10.321 -28.77 -11.088 C -27.933 -11.855 -26.81 -12.238 -25.403 -12.238 C -24.014 -12.238 -22.901 -11.855 -22.063 -11.088 C -21.207 -10.321 -20.78 -9.348 -20.78 -8.17 C -20.78 -6.992 -21.207 -6.019 -22.063 -5.252 C -22.901 -4.486 -24.014 -4.102 -25.403 -4.102 C -26.81 -4.102 -27.933 -4.486 -28.77 -5.252 C -29.608 -6.019 -30.025 -6.992 -30.025 -8.17 Z M 10.097 23.784 L 10.097 30.096 L -13.359 30.096 L -13.359 23.784 L 10.097 23.784 Z M 9.642 4.398 L -10.049 30.096 L -15.558 30.096 L -15.558 25.299 L 4.047 -0.259 L 9.642 -0.259 L 9.642 4.398 Z M 6.73 -0.259 L 6.73 6.081 L -15.101 6.081 L -15.101 -0.259 L 6.73 -0.259 Z M 39.833 23.784 L 39.833 30.096 L 16.375 30.096 L 16.375 23.784 L 39.833 23.784 Z M 39.376 4.398 L 19.686 30.096 L 14.178 30.096 L 14.178 25.299 L 33.784 -0.259 L 39.376 -0.259 L 39.376 4.398 Z M 36.467 -0.259 L 36.467 6.081 L 14.635 6.081 L 14.635 -0.259 L 36.467 -0.259 Z M 61.665 23.251 L 61.665 9.729 C 61.665 8.756 61.502 7.924 61.18 7.232 C 60.856 6.521 60.352 5.969 59.667 5.577 C 59 5.184 58.135 4.987 57.07 4.987 C 56.156 4.987 55.367 5.146 54.701 5.464 C 54.035 5.764 53.522 6.203 53.16 6.783 C 52.798 7.344 52.618 8.008 52.618 8.775 L 44.399 8.775 C 44.399 7.484 44.704 6.259 45.312 5.1 C 45.921 3.94 46.807 2.921 47.966 2.042 C 49.126 1.144 50.506 0.443 52.104 -0.062 C 53.721 -0.567 55.529 -0.82 57.527 -0.82 C 59.923 -0.82 62.054 -0.427 63.919 0.358 C 65.783 1.144 67.248 2.322 68.313 3.893 C 69.397 5.464 69.939 7.428 69.939 9.785 L 69.939 22.774 C 69.939 24.438 70.044 25.804 70.254 26.87 C 70.464 27.917 70.767 28.834 71.167 29.619 L 71.167 30.096 L 62.863 30.096 C 62.463 29.273 62.159 28.244 61.949 27.01 C 61.76 25.757 61.665 24.504 61.665 23.251 Z M 62.749 11.608 L 62.805 16.181 L 58.211 16.181 C 57.127 16.181 56.185 16.303 55.386 16.546 C 54.587 16.789 53.931 17.135 53.417 17.584 C 52.903 18.014 52.523 18.519 52.276 19.099 C 52.047 19.679 51.933 20.314 51.933 21.006 C 51.933 21.698 52.094 22.325 52.418 22.886 C 52.742 23.428 53.208 23.859 53.817 24.177 C 54.425 24.476 55.139 24.625 55.957 24.625 C 57.193 24.625 58.268 24.382 59.182 23.896 C 60.095 23.41 60.798 22.811 61.294 22.101 C 61.807 21.39 62.073 20.717 62.091 20.081 L 64.262 23.503 C 63.956 24.27 63.539 25.065 63.005 25.888 C 62.492 26.711 61.835 27.487 61.035 28.216 C 60.238 28.927 59.276 29.516 58.154 29.984 C 57.031 30.433 55.699 30.657 54.159 30.657 C 52.199 30.657 50.42 30.274 48.823 29.507 C 47.243 28.721 45.988 27.646 45.056 26.281 C 44.142 24.897 43.685 23.326 43.685 21.567 C 43.685 19.978 43.991 18.566 44.599 17.331 C 45.208 16.097 46.103 15.059 47.282 14.217 C 48.481 13.357 49.973 12.712 51.762 12.282 C 53.55 11.833 55.623 11.608 57.984 11.608 L 62.749 11.608 Z" fill="#FF3F4B" transform="matrix(1, 0, 0, 1, 487.253815, 228.726852)">
    <title>Pizza</title>
  </path>
</svg>